<svg width="15" height="15" viewBox="0 0 15 15" fill="none" xmlns="http://www.w3.org/2000/svg">
<g clip-path="url(#clip0_245_235)">
<path d="M13.5819 1.41813C13.2742 1.11051 12.857 0.937695 12.4219 0.937695C11.9868 0.937695 11.5695 1.11051 11.2619 1.41813L10.5388 2.14125L12.8588 4.46125L13.5819 3.73813C13.8895 3.43046 14.0623 3.0132 14.0623 2.57813C14.0623 2.14305 13.8895 1.72579 13.5819 1.41813ZM12.1956 5.12438L9.87563 2.80438L2.28188 10.3981C1.89616 10.7836 1.61262 11.2592 1.45688 11.7819L0.956882 13.46C0.932742 13.541 0.930941 13.627 0.951671 13.7089C0.9724 13.7908 1.01489 13.8656 1.07464 13.9254C1.13439 13.9851 1.20919 14.0276 1.29111 14.0483C1.37303 14.0691 1.45903 14.0673 1.54001 14.0431L3.21813 13.5431C3.74077 13.3874 4.21636 13.1038 4.60188 12.7181L12.1956 5.12438Z" fill="#5889A6"/>
</g>
<defs>
<clipPath id="clip0_245_235">
<rect width="15" height="15" fill="white"/>
</clipPath>
</defs>
</svg>
